<?xml version="1.0" encoding="UTF-8" standalone="no"?>
<!DOCTYPE svg PUBLIC "-//W3C//DTD SVG 1.1//EN" "http://www.w3.org/Graphics/SVG/1.1/DTD/svg11.dtd">
<svg version="1.1" xmlns="http://www.w3.org/2000/svg" xmlns:xlink="http://www.w3.org/1999/xlink" preserveAspectRatio="xMidYMid meet" viewBox="0 0 640 640" width="640" height="640"><defs><path d="M530.3 460.8L530.3 425.73L565.25 425.73L565.25 323.46L535.17 233.09L407.55 233.09L407.55 425.73L425.09 425.73L425.09 460.8L372.61 460.8L372.61 198.02L560.38 198.02L600.32 317.82L600.32 460.8L530.3 460.8Z" id="d5bKpxDLz2"></path><path d="M483.44 373.35L486.26 373.64L489.05 374.04L491.81 374.55L494.53 375.16L497.2 375.88L499.83 376.7L502.42 377.63L504.96 378.64L507.46 379.76L509.89 380.97L512.28 382.26L514.61 383.65L516.88 385.12L519.09 386.68L521.23 388.32L523.31 390.03L525.32 391.83L527.26 393.7L529.13 395.64L530.93 397.65L532.64 399.73L534.28 401.87L535.84 404.08L537.31 406.35L538.7 408.68L539.99 411.07L541.2 413.5L542.32 416L543.33 418.54L544.26 421.13L545.08 423.76L545.8 426.43L546.41 429.15L546.92 431.91L547.32 434.7L547.61 437.52L547.78 440.38L547.84 443.26L547.77 446.15L547.59 449.01L547.29 451.83L546.89 454.62L546.37 457.38L545.76 460.09L545.03 462.77L544.21 465.4L543.28 467.99L542.26 470.53L541.15 473.02L539.94 475.46L538.64 477.85L537.25 480.18L535.78 482.45L534.23 484.65L532.59 486.8L530.87 488.88L529.08 490.89L527.22 492.83L525.28 494.7L523.27 496.5L521.19 498.21L519.05 499.85L516.84 501.41L514.58 502.88L512.25 504.27L509.87 505.56L507.43 506.77L504.95 507.88L502.41 508.9L499.82 509.82L497.19 510.65L494.52 511.36L491.8 511.98L489.05 512.49L486.26 512.89L483.44 513.17L480.58 513.35L477.7 513.41L474.81 513.35L471.95 513.17L469.13 512.89L466.34 512.49L463.58 511.98L460.87 511.36L458.19 510.65L455.56 509.82L452.97 508.9L450.43 507.88L447.94 506.77L445.5 505.56L443.11 504.27L440.78 502.88L438.51 501.41L436.31 499.85L434.16 498.21L432.08 496.5L430.07 494.7L428.13 492.83L426.26 490.89L424.46 488.88L422.75 486.8L421.11 484.65L419.55 482.45L418.08 480.18L416.69 477.85L415.4 475.46L414.19 473.02L413.08 470.53L412.06 467.99L411.14 465.4L410.31 462.77L409.6 460.09L408.98 457.38L408.47 454.62L408.07 451.83L407.79 449.01L407.61 446.15L407.55 443.26L407.61 440.38L407.79 437.52L408.07 434.7L408.47 431.91L408.98 429.15L409.6 426.43L410.31 423.76L411.14 421.13L412.06 418.54L413.08 416L414.19 413.5L415.4 411.07L416.69 408.68L418.08 406.35L419.55 404.08L421.11 401.87L422.75 399.73L424.46 397.65L426.26 395.64L428.13 393.7L430.07 391.83L432.08 390.03L434.16 388.32L436.31 386.68L438.51 385.12L440.78 383.65L443.11 382.26L445.5 380.97L447.94 379.76L450.43 378.64L452.97 377.63L455.56 376.7L458.19 375.88L460.87 375.16L463.58 374.55L466.34 374.04L469.13 373.64L471.95 373.35L474.81 373.18L477.7 373.12L480.58 373.18L483.44 373.35ZM474.83 408.31L473.41 408.45L472.02 408.65L470.64 408.91L469.28 409.21L467.94 409.57L466.63 409.98L465.33 410.44L464.06 410.95L462.82 411.51L461.6 412.11L460.4 412.76L459.24 413.46L458.11 414.19L457 414.97L455.93 415.79L454.89 416.65L453.88 417.55L452.91 418.48L451.98 419.45L451.08 420.46L450.22 421.5L449.4 422.57L448.62 423.67L447.89 424.81L447.2 425.97L446.55 427.16L445.94 428.38L445.39 429.63L444.88 430.9L444.42 432.19L444.01 433.51L443.65 434.85L443.34 436.21L443.08 437.59L442.88 438.98L442.74 440.39L442.65 441.82L442.62 443.26L442.65 444.71L442.74 446.13L442.88 447.55L443.08 448.94L443.34 450.32L443.65 451.68L444.01 453.02L444.42 454.33L444.88 455.63L445.39 456.9L445.94 458.14L446.55 459.36L447.2 460.56L447.89 461.72L448.62 462.85L449.4 463.96L450.22 465.03L451.08 466.07L451.98 467.08L452.91 468.05L453.88 468.98L454.89 469.88L455.93 470.74L457 471.56L458.11 472.34L459.24 473.07L460.4 473.76L461.6 474.41L462.82 475.02L464.06 475.57L465.33 476.08L466.63 476.54L467.94 476.95L469.28 477.31L470.64 477.62L472.02 477.88L473.41 478.08L474.83 478.22L476.25 478.31L477.7 478.34L479.14 478.31L480.57 478.22L481.98 478.08L483.37 477.88L484.75 477.62L486.11 477.31L487.45 476.95L488.77 476.54L490.06 476.08L491.33 475.57L492.58 475.02L493.8 474.41L494.99 473.76L496.15 473.07L497.29 472.34L498.39 471.56L499.46 470.74L500.5 469.88L501.51 468.98L502.48 468.05L503.41 467.08L504.31 466.07L505.17 465.03L505.99 463.96L506.77 462.85L507.5 461.72L508.2 460.56L508.85 459.36L509.45 458.14L510.01 456.9L510.52 455.63L510.98 454.33L511.39 453.02L511.75 451.68L512.05 450.32L512.31 448.94L512.51 447.55L512.65 446.13L512.74 444.71L512.77 443.26L512.74 441.82L512.65 440.39L512.51 438.98L512.31 437.59L512.05 436.21L511.75 434.85L511.39 433.51L510.98 432.19L510.52 430.9L510.01 429.63L509.45 428.38L508.85 427.16L508.2 425.97L507.5 424.81L506.77 423.67L505.99 422.57L505.17 421.5L504.31 420.46L503.41 419.45L502.48 418.48L501.51 417.55L500.5 416.65L499.46 415.79L498.39 414.97L497.29 414.19L496.15 413.46L494.99 412.76L493.8 412.11L492.58 411.51L491.33 410.95L490.06 410.44L488.77 409.98L487.45 409.57L486.11 409.21L484.75 408.91L483.37 408.65L481.98 408.45L480.57 408.31L479.14 408.22L477.7 408.19L476.25 408.22L474.83 408.31Z" id="bP5jJsnVl"></path><path d="M74.75 460.8L74.75 338.18L109.7 338.18L109.7 425.73L144.77 425.73L144.77 460.8L74.75 460.8Z" id="b60prdWzvi"></path><path d="M249.86 460.8L249.86 425.73L372.61 425.73L372.61 162.94L39.68 162.94L39.68 127.87L407.55 127.87L407.55 460.8L249.86 460.8Z" id="dcdqmpv1T"></path><path d="M203.12 373.35L205.94 373.64L208.73 374.04L211.49 374.55L214.21 375.16L216.88 375.88L219.51 376.7L222.1 377.63L224.64 378.64L227.14 379.76L229.57 380.97L231.96 382.26L234.29 383.65L236.56 385.12L238.77 386.68L240.91 388.32L242.99 390.03L245 391.83L246.94 393.7L248.81 395.64L250.61 397.65L252.32 399.73L253.96 401.87L255.52 404.08L256.99 406.35L258.38 408.68L259.67 411.07L260.88 413.5L262 416L263.01 418.54L263.94 421.13L264.76 423.76L265.48 426.43L266.09 429.15L266.6 431.91L267 434.7L267.29 437.52L267.46 440.38L267.52 443.26L267.45 446.15L267.27 449.01L266.97 451.83L266.57 454.62L266.05 457.38L265.44 460.09L264.71 462.77L263.89 465.4L262.96 467.99L261.94 470.53L260.83 473.02L259.62 475.46L258.32 477.85L256.93 480.18L255.46 482.45L253.91 484.65L252.27 486.8L250.55 488.88L248.76 490.89L246.9 492.83L244.96 494.7L242.95 496.5L240.87 498.21L238.73 499.85L236.52 501.41L234.26 502.88L231.93 504.27L229.55 505.56L227.11 506.77L224.63 507.88L222.09 508.9L219.5 509.82L216.87 510.65L214.2 511.36L211.48 511.98L208.73 512.49L205.94 512.89L203.12 513.17L200.26 513.35L197.38 513.41L194.49 513.35L191.63 513.17L188.81 512.89L186.02 512.49L183.26 511.98L180.55 511.36L177.87 510.65L175.24 509.82L172.65 508.9L170.11 507.88L167.62 506.77L165.18 505.56L162.79 504.27L160.46 502.88L158.19 501.41L155.99 499.85L153.84 498.21L151.76 496.5L149.75 494.7L147.81 492.83L145.94 490.89L144.14 488.88L142.43 486.8L140.79 484.65L139.23 482.45L137.76 480.18L136.37 477.85L135.08 475.46L133.87 473.02L132.76 470.53L131.74 467.99L130.82 465.4L129.99 462.77L129.28 460.09L128.66 457.38L128.15 454.62L127.75 451.83L127.47 449.01L127.29 446.15L127.23 443.26L127.29 440.38L127.47 437.52L127.75 434.7L128.15 431.91L128.66 429.15L129.28 426.43L129.99 423.76L130.82 421.13L131.74 418.54L132.76 416L133.87 413.5L135.08 411.07L136.37 408.68L137.76 406.35L139.23 404.08L140.79 401.87L142.43 399.73L144.14 397.65L145.94 395.64L147.81 393.7L149.75 391.83L151.76 390.03L153.84 388.32L155.99 386.68L158.19 385.12L160.46 383.65L162.79 382.26L165.18 380.97L167.62 379.76L170.11 378.64L172.65 377.63L175.24 376.7L177.87 375.88L180.55 375.16L183.26 374.55L186.02 374.04L188.81 373.64L191.63 373.35L194.49 373.18L197.38 373.12L200.26 373.18L203.12 373.35ZM194.51 408.31L193.09 408.45L191.7 408.65L190.32 408.91L188.96 409.21L187.62 409.57L186.31 409.98L185.01 410.44L183.74 410.95L182.5 411.51L181.28 412.11L180.08 412.76L178.92 413.46L177.79 414.19L176.68 414.97L175.61 415.79L174.57 416.65L173.56 417.55L172.59 418.48L171.66 419.45L170.76 420.46L169.9 421.5L169.08 422.57L168.3 423.67L167.57 424.81L166.88 425.97L166.23 427.16L165.62 428.38L165.07 429.63L164.56 430.9L164.1 432.19L163.69 433.51L163.33 434.85L163.02 436.21L162.76 437.59L162.56 438.98L162.42 440.39L162.33 441.82L162.3 443.26L162.33 444.71L162.42 446.13L162.56 447.55L162.76 448.94L163.02 450.32L163.33 451.68L163.69 453.02L164.1 454.33L164.56 455.63L165.07 456.9L165.62 458.14L166.23 459.36L166.88 460.56L167.57 461.72L168.3 462.85L169.08 463.96L169.9 465.03L170.76 466.07L171.66 467.08L172.59 468.05L173.56 468.98L174.57 469.88L175.61 470.74L176.68 471.56L177.79 472.34L178.92 473.07L180.08 473.76L181.28 474.41L182.5 475.02L183.74 475.57L185.01 476.08L186.31 476.54L187.62 476.95L188.96 477.31L190.32 477.62L191.7 477.88L193.09 478.08L194.51 478.22L195.93 478.31L197.38 478.34L198.82 478.31L200.25 478.22L201.66 478.08L203.05 477.88L204.43 477.62L205.79 477.31L207.13 476.95L208.45 476.54L209.74 476.08L211.01 475.57L212.26 475.02L213.48 474.41L214.67 473.76L215.83 473.07L216.97 472.34L218.07 471.56L219.14 470.74L220.18 469.88L221.19 468.98L222.16 468.05L223.09 467.08L223.99 466.07L224.85 465.03L225.67 463.96L226.45 462.85L227.18 461.72L227.88 460.56L228.53 459.36L229.13 458.14L229.69 456.9L230.2 455.63L230.66 454.33L231.07 453.02L231.43 451.68L231.73 450.32L231.99 448.94L232.19 447.55L232.33 446.13L232.42 444.71L232.45 443.26L232.42 441.82L232.33 440.39L232.19 438.98L231.99 437.59L231.73 436.21L231.43 434.85L231.07 433.51L230.66 432.19L230.2 430.9L229.69 429.63L229.13 428.38L228.53 427.16L227.88 425.97L227.18 424.81L226.45 423.67L225.67 422.57L224.85 421.5L223.99 420.46L223.09 419.45L222.16 418.48L221.19 417.55L220.18 416.65L219.14 415.79L218.07 414.97L216.97 414.19L215.83 413.46L214.67 412.76L213.48 412.11L212.26 411.51L211.01 410.95L209.74 410.44L208.45 409.98L207.13 409.57L205.79 409.21L204.43 408.91L203.05 408.65L201.66 408.45L200.25 408.31L198.82 408.22L197.38 408.19L195.93 408.22L194.51 408.31Z" id="a5YNJdb4M"></path><path d="M214.91 198.02C214.91 198.02 214.91 198.02 214.91 198.02C214.91 219.06 214.91 230.75 214.91 233.09C214.91 233.09 214.91 233.09 214.91 233.09C120.29 233.09 67.73 233.09 57.22 233.09C57.22 233.09 57.22 233.09 57.22 233.09C57.22 212.04 57.22 200.35 57.22 198.02C57.22 198.02 57.22 198.02 57.22 198.02C151.83 198.02 204.4 198.02 214.91 198.02Z" id="c8XdDS2MH"></path><path d="M179.84 268.03C179.84 268.03 179.84 268.03 179.84 268.03C179.84 289.08 179.84 300.77 179.84 303.1C179.84 303.1 179.84 303.1 179.84 303.1C116.79 303.1 81.76 303.1 74.75 303.1C74.75 303.1 74.75 303.1 74.75 303.1C74.75 282.06 74.75 270.37 74.75 268.03C74.75 268.03 74.75 268.03 74.75 268.03C137.8 268.03 172.83 268.03 179.84 268.03Z" id="esiqail23"></path></defs><g><g><g><use xlink:href="#d5bKpxDLz2" opacity="1" fill="#ffffff" fill-opacity="1"></use><g><use xlink:href="#d5bKpxDLz2" opacity="1" fill-opacity="0" stroke="#000000" stroke-width="1" stroke-opacity="0"></use></g></g><g><use xlink:href="#bP5jJsnVl" opacity="1" fill="#ffffff" fill-opacity="1"></use><g><use xlink:href="#bP5jJsnVl" opacity="1" fill-opacity="0" stroke="#000000" stroke-width="1" stroke-opacity="0"></use></g></g><g><use xlink:href="#b60prdWzvi" opacity="1" fill="#ffffff" fill-opacity="1"></use><g><use xlink:href="#b60prdWzvi" opacity="1" fill-opacity="0" stroke="#000000" stroke-width="1" stroke-opacity="0"></use></g></g><g><use xlink:href="#dcdqmpv1T" opacity="1" fill="#ffffff" fill-opacity="1"></use><g><use xlink:href="#dcdqmpv1T" opacity="1" fill-opacity="0" stroke="#000000" stroke-width="1" stroke-opacity="0"></use></g></g><g><use xlink:href="#a5YNJdb4M" opacity="1" fill="#ffffff" fill-opacity="1"></use><g><use xlink:href="#a5YNJdb4M" opacity="1" fill-opacity="0" stroke="#000000" stroke-width="1" stroke-opacity="0"></use></g></g><g><use xlink:href="#c8XdDS2MH" opacity="1" fill="#ffffff" fill-opacity="1"></use><g><use xlink:href="#c8XdDS2MH" opacity="1" fill-opacity="0" stroke="#000000" stroke-width="1" stroke-opacity="0"></use></g></g><g><use xlink:href="#esiqail23" opacity="1" fill="#ffffff" fill-opacity="1"></use><g><use xlink:href="#esiqail23" opacity="1" fill-opacity="0" stroke="#000000" stroke-width="1" stroke-opacity="0"></use></g></g></g></g></svg>